<svg xmlns="http://www.w3.org/2000/svg" viewBox="0 0 24 24" fill="none" stroke="#fff" stroke-width="1.6" stroke-linecap="round" stroke-linejoin="round"><g opacity="0.35"><circle cx="5" cy="6" r="1.6"/><path d="M5 8v5.5l-2 5M5 13.5l2.2 5M5 9.8l-2.6 2M5 9.8l2.6 1.6"/></g><g opacity="0.35"><circle cx="19" cy="6" r="1.6"/><path d="M19 8v5.5l-2.2 5M19 13.5l2 5M19 9.8l-2.6 1.6M19 9.8l2.6-2"/></g><circle cx="12" cy="5" r="1.9" fill="#fff" stroke="none"/><path d="M12 7.6v6.2l-2.6 6M12 13.8l2.6 6M12 9.6l-3.4 2.6M12 9.6l3.4 2.6" stroke-width="1.9"/></svg>
